<?xml version="1.0" encoding="iso-8859-1"?>
<!-- Generator: Adobe Illustrator 17.1.0, SVG Export Plug-In . SVG Version: 6.00 Build 0)  -->
<!DOCTYPE svg PUBLIC "-//W3C//DTD SVG 1.1//EN" "http://www.w3.org/Graphics/SVG/1.1/DTD/svg11.dtd">
<svg version="1.1" id="Capa_1" xmlns="http://www.w3.org/2000/svg" xmlns:xlink="http://www.w3.org/1999/xlink" x="0px" y="0px"
	 viewBox="0 0 224.561 224.561" style="enable-background:new 0 0 224.561 224.561;" xml:space="preserve">
<path d="M164.78,32.417C164.78,14.542,150.238,0,132.362,0c-17.875,0-32.417,14.542-32.417,32.417
	c0,14.386,9.422,26.607,22.417,30.832v120.02c0,11.74-9.551,21.291-21.291,21.291S79.78,195.009,79.78,183.27v-9.018l3.478,3.479
	c3.905,3.904,10.237,3.904,14.143,0c3.905-3.905,3.905-10.237,0-14.143l-20.549-20.549c-2.86-2.86-7.161-3.716-10.898-2.167
	c-3.737,1.548-6.173,5.194-6.173,9.239v33.16c0,22.768,18.523,41.291,41.291,41.291s41.291-18.523,41.291-41.291V63.25
	C155.358,59.025,164.78,46.804,164.78,32.417z M132.362,44.835c-6.847,0-12.417-5.571-12.417-12.418S125.515,20,132.362,20
	s12.418,5.57,12.418,12.417S139.209,44.835,132.362,44.835z"/>
<g>
</g>
<g>
</g>
<g>
</g>
<g>
</g>
<g>
</g>
<g>
</g>
<g>
</g>
<g>
</g>
<g>
</g>
<g>
</g>
<g>
</g>
<g>
</g>
<g>
</g>
<g>
</g>
<g>
</g>
</svg>
